<?xml version="1.0" encoding="UTF-8"?>
<svg width="25px" height="25px" viewBox="0 0 65 64" version="1.1" xmlns="http://www.w3.org/2000/svg" xmlns:xlink="http://www.w3.org/1999/xlink">
    <title>E5A36970-9F29-4B37-A688-A5AC3BD25B0B</title>
    <g id="Tokens" stroke="none" stroke-width="1" fill="none" fill-rule="evenodd">
        <g id="TO-Icons" transform="translate(-780.000000, -845.000000)">
            <g id="Group-7" transform="translate(133.000000, 845.000000)">
                <g id="A-Icons/C/continue/graphical-Copy" transform="translate(647.499500, 0.000000)">
                    <polygon id="Protection" points="0 0 64.001 0 64.001 64 0 64"></polygon>
                    <path d="M23.501,54.9995 C23.117,54.9995 22.733,54.8535 22.44,54.5605 C21.854,53.9745 21.854,53.0255 22.44,52.4395 L42.38,32.4995 L22.44,12.5605 C21.854,11.9745 21.854,11.0255 22.44,10.4395 C23.026,9.8535 23.975,9.8535 24.561,10.4395 L45.561,31.4395 C46.147,32.0255 46.147,32.9745 45.561,33.5605 L24.561,54.5605 C24.269,54.8535 23.885,54.9995 23.501,54.9995 Z" id="Color" fill="#262626"></path>
                </g>
            </g>
        </g>
    </g>
</svg>
