<?xml version="1.0" encoding="UTF-8"?>
<svg width="20px" height="20px" viewBox="0 0 65 64" version="1.1" xmlns="http://www.w3.org/2000/svg" xmlns:xlink="http://www.w3.org/1999/xlink">
    <title>73F56CBD-8027-44B8-9F54-061086386514</title>
    <g id="Tokens" stroke="none" stroke-width="1" fill="none" fill-rule="evenodd">
        <g id="TO-Icons" transform="translate(-780.000000, -1023.000000)">
            <g id="Group-9" transform="translate(133.000000, 1023.000000)">
                <g id="A-Icons/D/download/graphical-Copy" transform="translate(647.500000, 0.000000)">
                    <polygon id="Protection" points="0 0 64.001 0 64.001 64 0 64"></polygon>
                    <path d="M43.1625,56.8805 L20.4885,56.8805 C19.6595,56.8805 18.9885,57.5525 18.9885,58.3805 C18.9885,59.2085 19.6595,59.8805 20.4885,59.8805 L43.1635,59.8805 C43.9925,59.8805 44.6635,59.2085 44.6635,58.3805 C44.6635,57.5525 43.9915,56.8805 43.1625,56.8805 Z M45.0115,36.8805 L33.5115,36.8805 L33.5115,5.6195 C33.5115,4.7915 32.8405,4.1195 32.0115,4.1195 C31.1825,4.1195 30.5115,4.7915 30.5115,5.6195 L30.5115,36.8805 L19.0115,36.8805 L32.0115,49.8805 L45.0115,36.8805 Z" id="Color" fill="#262626"></path>
                </g>
            </g>
        </g>
    </g>
</svg>
