<?xml version="1.0" encoding="UTF-8"?>
<svg width="18px" height="18px" viewBox="0 0 64 64" version="1.1" xmlns="http://www.w3.org/2000/svg" xmlns:xlink="http://www.w3.org/1999/xlink">
    <title>2C2410BA-2D48-48FA-AE13-56E09819721F</title>
    <g id="Bestandssicht-EC2.0" stroke="none" stroke-width="1" fill="none" fill-rule="evenodd">
        <g id="TO-Icons" transform="translate(-768.000000, -2897.000000)" fill="#262626">
            <g id="00_Tokens/TO-Icons/_UserInterface/action/drag-and-drop/outline-Copy-2" transform="translate(768.000000, 2897.000000)">
                <g id="00_Tokens/TO-Icons/_UserInterface/action/drag-and-drop/outline-Copy" transform="translate(-0.000533, -0.000533)">
                    <path d="M46.768,24.1386667 C48.9733333,24.1386667 50.976,25.36 52.0053333,27.256 L52.4293333,27.128 L52.4293333,27.128 C52.8933333,27.008 53.3626667,26.9466667 53.8293333,26.9466667 C56.1960784,26.9466667 58.1943253,28.493887 59.0726264,30.9458178 L60.864064,36.240576 L60.864064,36.240576 L62.5745467,41.4305101 C62.696442,41.8054866 62.820544,42.188352 62.9466667,42.5786667 C65.8613333,51.6106667 62.6373333,59.3386667 54.528,62.7493333 C52.5573333,63.5786667 50.5413333,64 48.5413333,64 C44.1460392,64 40.5355202,62.0027682 37.552235,60.1167922 L34.4990069,58.1504966 L34.4990069,58.1504966 L33.4923018,57.4795281 L33.4923018,57.4795281 L32.1336845,56.538096 L32.1336845,56.538096 L30.2746667,55.2213333 C27.7973333,53.4666667 27.032,50.04 28.5306667,47.416 C29.4933333,45.7333333 31.2426667,44.6853333 33.2613333,44.5626667 L29.4746667,38.8506667 C28.6026667,37.52 28.3013333,35.9306667 28.624,34.3706667 C28.9466667,32.8133333 29.856,31.4746667 31.1866667,30.6026667 C31.9573333,30.096 32.824,29.7786667 33.7306667,29.6693333 C34.0213333,27.8933333 35.1093333,26.2693333 36.8186667,25.3626667 C37.6773333,24.9093333 38.64,24.6693333 39.608,24.6693333 C40.776,24.6693333 41.8906667,25.0106667 42.8346667,25.616 C43.3973333,25.1226667 44.056,24.736 44.784,24.4773333 C45.424,24.2533333 46.0906667,24.1386667 46.768,24.1386667 Z M46.768,28.136 C46.552,28.136 46.3306667,28.1733333 46.1146667,28.248 C45.0933333,28.608 44.56,29.7253333 44.92,30.7466667 L48.3973333,40.6106667 L47.36,40.992 L47.36,40.992 L41.3386667,29.712 C40.9866667,29.048 40.3066667,28.6666667 39.608,28.6666667 C39.2986667,28.6666667 38.9813333,28.744 38.6906667,28.896 C37.736,29.4026667 37.3706667,30.5866667 37.8773333,31.5413333 L43.64,42.8293333 L43.289679,43.0288395 L43.289679,43.0288395 L42.5653333,43.464 L42.5653333,43.464 L36.0933333,34.5066667 C35.7173333,33.9333333 35.0933333,33.624 34.456,33.624 C34.0853333,33.624 33.712,33.728 33.3813333,33.944 C32.4773333,34.536 32.2266667,35.7493333 32.8186667,36.6533333 L40.464,48.1946667 C41.808,50.0426667 40.7973333,51.1013333 39.8666667,51.1013333 C39.7093333,51.1013333 39.5546667,51.072 39.416,51.0106667 L39.0321683,50.8366237 L39.0321683,50.8366237 L36.401679,49.5684938 L36.401679,49.5684938 L35.2023009,49.0062405 C35.0030947,48.915358 34.8053333,48.8266667 34.6106667,48.7413333 C34.3173333,48.6133333 33.9893333,48.5466667 33.664,48.5466667 C32.9946667,48.5466667 32.3333333,48.824 32.0053333,49.4 C31.456,50.36 31.8853333,51.464 32.5866667,51.96 L35.2106667,53.8113333 L35.2106667,53.8113333 L36.1413227,54.4436747 L36.1413227,54.4436747 L37.2424747,55.167024 L37.2424747,55.167024 L39.7136393,56.7540378 C42.3664687,58.4306146 45.2241667,60.0026667 48.5413333,60.0026667 C49.936,60.0026667 51.408,59.728 52.9786667,59.0666667 C59.5386667,56.304 61.3146667,50.552 59.1386667,43.8053333 L57.2566413,38.0616211 L57.2566413,38.0616211 L55.4053333,32.608 C55.1653333,31.696 54.6453333,30.944 53.8293333,30.944 C53.7066667,30.944 53.576,30.9626667 53.44,30.9946667 C52.3946667,31.2693333 51.984,32.3466667 52.2586667,33.392 L53.568,39.352 C53.2133333,39.4106667 52.7813333,39.3733333 52.3946667,39.4506667 L48.616,29.4426667 C48.3306667,28.64 47.576,28.136 46.768,28.136 Z M35.9973333,7.99466667 L35.9973333,11.992 L53.328,11.992 L53.328,22.6266667 C52.3474286,21.7649524 51.2042449,21.1011156 49.9589038,20.6788183 L49.328,20.488 L49.328,15.9893333 L16,15.9893333 L16,45.304 C16,47.3796078 17.5897393,49.0914418 19.6153682,49.2856519 L20,49.304 L23.8346667,49.304 C23.7213333,50.4262222 23.7968889,51.5595556 24.0551605,52.6515309 L24.232,53.3013333 L20,53.3013333 C15.7391429,53.3013333 12.2568776,49.9737211 12.0135791,45.7740895 L12,45.304 L12,35.976 L8,35.976 L8,31.9786667 L12,31.9786667 L12,11.992 L31.9973333,11.992 L31.9973333,7.99466667 L35.9973333,7.99466667 Z M4,31.9786667 L4,35.976 L2.36843965e-15,35.976 L2.36843965e-15,31.9786667 L4,31.9786667 Z M4,23.984 L4,27.9813333 L2.36843965e-15,27.9813333 L2.36843965e-15,23.984 L4,23.984 Z M4,15.9893333 L4,19.9866667 L2.36843965e-15,19.9866667 L2.36843965e-15,15.9893333 L4,15.9893333 Z M4,7.99466667 L4,11.992 L2.36843965e-15,11.992 L2.36843965e-15,7.99466667 L4,7.99466667 Z M20,4.33680869e-19 L20,3.99733333 L16,3.99733333 L16,4.33680869e-19 L20,4.33680869e-19 Z M4,4.33680869e-19 L4,3.99733333 L2.36843965e-15,3.99733333 L2.36843965e-15,4.33680869e-19 L4,4.33680869e-19 Z M12,4.33680869e-19 L12,3.99733333 L8,3.99733333 L8,4.33680869e-19 L12,4.33680869e-19 Z M27.9973333,4.33680869e-19 L27.9973333,3.99733333 L23.9973333,3.99733333 L23.9973333,4.33680869e-19 L27.9973333,4.33680869e-19 Z M35.9973333,4.33680869e-19 L35.9973333,3.99733333 L31.9973333,3.99733333 L31.9973333,4.33680869e-19 L35.9973333,4.33680869e-19 Z" id="Shape"></path>
                </g>
            </g>
        </g>
    </g>
</svg>
