<?xml version="1.0" encoding="UTF-8"?>
<svg width="16px" height="16px" viewBox="0 0 65 64" version="1.1" xmlns="http://www.w3.org/2000/svg" xmlns:xlink="http://www.w3.org/1999/xlink">
    <title>A2233195-FAFD-4C6D-BBCF-8E2B8B43C9FE</title>
    <g id="Tokens" stroke="none" stroke-width="1" fill="none" fill-rule="evenodd">
        <g id="TO-Icons" transform="translate(-780.000000, -1468.000000)">
            <g id="Group-16" transform="translate(133.000000, 1468.000000)">
                <g id="A-Icons/H/home/graphical-Copy" transform="translate(647.500000, 0.000000)">
                    <polygon id="Protection" points="0 0 64.001 0 64.001 64 0 64"></polygon>
                    <path d="M61.0605,31.94 L32.0005,3 L2.9395,31.94 C2.3535,32.526 2.3535,33.475 2.9395,34.061 C3.5255,34.647 4.4745,34.647 5.0605,34.061 L32.0005,7 L58.9395,34.061 C59.2325,34.354 59.6165,34.5 59.9995,34.5 C60.3825,34.5 60.7675,34.354 61.0605,34.061 C61.6465,33.475 61.6465,32.525 61.0605,31.94 Z M52.0005,58 L12.0005,58 L12.0005,31.121 L9.0005,34.121 L9.0005,59 C9.0005,60.1 9.9005,61 11.0005,61 L53.0005,61 C54.1005,61 55.0005,60.1 55.0005,59 L55.0005,34.121 L52.0005,31.121 L52.0005,58 Z" id="Color" fill="#262626"></path>
                </g>
            </g>
        </g>
    </g>
</svg>