<?xml version="1.0" encoding="UTF-8"?>
<svg width="16px" height="16px" viewBox="0 0 65 64" version="1.1" xmlns="http://www.w3.org/2000/svg" xmlns:xlink="http://www.w3.org/1999/xlink">
    <title>0A5F3327-4862-4D8E-9324-A6FAB2A86694</title>
    <g id="Tokens" stroke="none" stroke-width="1" fill="none" fill-rule="evenodd">
        <g id="TO-Icons" transform="translate(-780.000000, -1646.000000)">
            <g id="Group-18" transform="translate(133.000000, 1646.000000)">
                <g id="A-Icons/P/plus/graphical-Copy" transform="translate(647.499500, 0.000000)">
                    <polygon id="Protection" points="0 0 64.001 0 64.001 64 0 64"></polygon>
                    <path d="M58.5015,30.5 L33.5015,30.5 L33.5015,5.5 C33.5015,4.672 32.8305,4 32.0015,4 C31.1725,4 30.5015,4.672 30.5015,5.5 L30.5015,30.5 L5.5015,30.5 C4.6725,30.5 4.0015,31.172 4.0015,32 C4.0015,32.828 4.6725,33.5 5.5015,33.5 L30.5015,33.5 L30.5015,58.5 C30.5015,59.328 31.1725,60 32.0015,60 C32.8305,60 33.5015,59.328 33.5015,58.5 L33.5015,33.5 L58.5015,33.5 C59.3305,33.5 60.0015,32.828 60.0015,32 C60.0015,31.172 59.3305,30.5 58.5015,30.5 Z" id="Color" fill="#262626"></path>
                </g>
            </g>
        </g>
    </g>
</svg>