<?xml version="1.0" encoding="UTF-8"?>
<svg width="20px" height="20px" viewBox="0 0 65 64" version="1.1" xmlns="http://www.w3.org/2000/svg" xmlns:xlink="http://www.w3.org/1999/xlink">
    <title>6266944C-9A96-4628-864F-43702FCC7226</title>
    <g id="Tokens" stroke="none" stroke-width="1" fill="none" fill-rule="evenodd">
        <g id="TO-Icons" transform="translate(-780.000000, -1735.000000)">
            <g id="Group-19" transform="translate(133.000000, 1735.000000)">
                <g id="A-Icons/S/search/graphical-Copy" transform="translate(647.500000, 0.000000)">
                    <polygon id="Protection" points="0 0 64.001 0 64.001 64 0 64"></polygon>
                    <path d="M37.018,7 C48.046,7 57.018,15.972 57.018,27 C57.018,38.028 48.046,47 37.018,47 C32.803,47 28.785,45.681 25.397,43.185 L25.34,43.143 L25.281,43.104 C23.661,42.024 22.211,40.593 20.74,38.633 C18.339,35.342 17.017,31.211 17.017,27 C17.018,15.972 25.99,7 37.018,7 M37.018,4 C24.317,4 14.018,14.3 14.018,27 C14.018,32 15.618,36.7 18.317,40.4 C19.817,42.4 21.518,44.2 23.618,45.599 C27.419,48.4 32.018,49.999 37.018,49.999 C49.717,49.999 60.018,39.699 60.018,26.999 C60.018,14.299 49.717,4 37.018,4 L37.018,4 Z M17.367,42.406 L4.903,54.869 C3.731,56.04 3.731,57.939 4.903,59.111 C5.489,59.697 6.256,59.99 7.025,59.99 C7.793,59.99 8.561,59.697 9.146,59.111 L21.638,46.62 C20.142,45.498 18.732,44.107 17.367,42.406 Z" id="Color" fill="#262626"></path>
                </g>
            </g>
        </g>
    </g>
</svg>
