<?xml version="1.0" encoding="UTF-8"?>
<svg width="16px" height="16px" viewBox="0 0 65 64" version="1.1" xmlns="http://www.w3.org/2000/svg" xmlns:xlink="http://www.w3.org/1999/xlink">
    <title>4352589C-7966-4CBA-A786-DD10A39CAA45</title>
    <g id="Tokens" stroke="none" stroke-width="1" fill="none" fill-rule="evenodd">
        <g id="TO-Icons" transform="translate(-780.000000, -3162.000000)">
            <g id="Group-36-Copy-3" transform="translate(133.000000, 3162.000000)">
                <g id="A-Icons/N/next/graphical-Copy-10" transform="translate(647.500000, 0.000000)">
                    <polygon id="Protection" points="0 0 64.001 0 64.001 64 0 64"></polygon>
                    <path d="M52.001,32 C52.001,30.786 51.874,29.603 51.667,28.447 L58.446,22.803 C57.272,19.425 55.471,16.345 53.181,13.697 L44.915,16.742 C43.11,15.213 41.028,14.011 38.759,13.195 L37.259,4.5 C35.556,4.176 33.8,4 32.001,4 C30.202,4 28.446,4.176 26.741,4.5 L25.243,13.195 C22.973,14.011 20.891,15.213 19.087,16.742 L10.819,13.697 C8.528,16.345 6.727,19.426 5.554,22.803 L12.333,28.447 C12.126,29.602 12.001,30.786 12.001,32 C12.001,33.213 12.126,34.396 12.333,35.552 L5.554,41.198 C6.728,44.576 8.53,47.656 10.819,50.304 L19.087,47.258 C20.892,48.788 22.974,49.988 25.243,50.805 L26.741,59.5 C28.446,59.825 30.202,60 32.001,60 C33.8,60 35.556,59.825 37.259,59.5 L38.759,50.805 C41.029,49.989 43.111,48.788 44.915,47.258 L53.181,50.304 C55.472,47.656 57.273,44.575 58.446,41.198 L51.667,35.554 C51.874,34.396 52.001,33.215 52.001,32 Z M54.862,42.117 C54.14,43.75 53.246,45.296 52.187,46.74 L45.952,44.442 L44.31,43.837 L42.975,44.969 C41.439,46.272 39.679,47.285 37.744,47.981 L36.1,48.572 L35.803,50.294 L34.671,56.855 C33.781,56.951 32.888,57 32.001,57 C31.114,57 30.221,56.951 29.33,56.855 L28.2,50.295 L27.903,48.573 L26.259,47.982 C24.324,47.286 22.564,46.272 21.027,44.97 L19.692,43.838 L18.05,44.443 L11.814,46.741 C10.755,45.295 9.86,43.749 9.138,42.117 L14.253,37.857 L15.594,36.741 L15.287,35.023 C15.095,33.952 15.002,32.963 15.002,32 C15.002,31.036 15.095,30.046 15.287,28.976 L15.595,27.258 L14.254,26.141 L9.139,21.883 C9.861,20.25 10.756,18.704 11.814,17.259 L18.051,19.556 L19.693,20.161 L21.028,19.03 C22.566,17.726 24.327,16.713 26.26,16.017 L27.904,15.426 L28.201,13.704 L29.331,7.144 C30.223,7.049 31.116,7 32.001,7 C32.887,7 33.779,7.049 34.671,7.145 L35.803,13.705 L36.1,15.427 L37.744,16.018 C39.678,16.713 41.438,17.727 42.976,19.031 L44.311,20.162 L45.953,19.557 L52.188,17.26 C53.247,18.705 54.141,20.251 54.863,21.884 L49.749,26.142 L48.408,27.259 L48.716,28.977 C48.909,30.055 49.003,31.044 49.003,32.001 C49.003,32.956 48.909,33.946 48.716,35.027 L48.409,36.744 L49.75,37.86 L54.862,42.117 Z M32.001,19.485 C25.089,19.485 19.483,25.089 19.483,32.003 C19.483,38.914 25.088,44.519 32.001,44.519 C38.915,44.519 44.519,38.915 44.519,32.003 C44.519,25.089 38.915,19.485 32.001,19.485 Z M32.001,41.519 C26.753,41.519 22.483,37.25 22.483,32.003 C22.483,26.755 26.753,22.485 32.001,22.485 C37.249,22.485 41.519,26.755 41.519,32.003 C41.519,37.25 37.249,41.519 32.001,41.519 Z" id="Color" fill="#262626"></path>
                </g>
            </g>
        </g>
    </g>
</svg>