<?xml version="1.0" encoding="UTF-8"?>
<svg width="16px" height="16px" viewBox="0 0 65 64" version="1.1" xmlns="http://www.w3.org/2000/svg" xmlns:xlink="http://www.w3.org/1999/xlink">
    <title>C6AADE10-7D0B-4B29-81FE-2920636CBDC4</title>
    <g id="Tokens" stroke="none" stroke-width="1" fill="none" fill-rule="evenodd">
        <g id="TO-Icons" transform="translate(-545.000000, -400.000000)">
            <g id="Group" transform="translate(133.000000, 400.000000)">
                <g id="A-Icons/A/available/graphical-Copy-3" transform="translate(412.500000, 0.000000)">
                    <polygon id="Protection" points="0 0 64.001 0 64.001 64 0 64"></polygon>
                    <path d="M32,4 C16.533,4 4,16.535 4,32.002 C4,47.467 16.533,60 32,60 C47.465,60 60,47.467 60,32.002 C60,16.535 47.465,4 32,4 Z M32,57 C18.215,57 7,45.786 7,32.002 C7,18.216 18.215,7 32,7 C45.785,7 57,18.216 57,32.002 C57,45.786 45.785,57 32,57 Z M45.939,20.94 L27,39.879 L19.061,31.94 C18.475,31.354 17.526,31.354 16.94,31.94 C16.354,32.526 16.354,33.475 16.94,34.061 L25.94,43.061 C26.232,43.354 26.617,43.5 27,43.5 C27.383,43.5 27.768,43.354 28.061,43.061 L48.061,23.061 C48.647,22.475 48.647,21.526 48.061,20.94 C47.475,20.354 46.525,20.354 45.939,20.94 Z" id="Color" fill="#262626"></path>
                </g>
            </g>
        </g>
    </g>
</svg>