<?xml version="1.0" encoding="UTF-8"?>
<svg width="16px" height="16px" viewBox="0 0 65 64" version="1.1" xmlns="http://www.w3.org/2000/svg" xmlns:xlink="http://www.w3.org/1999/xlink">
    <title>A6066A2D-C10B-49D5-B9B6-DF76949ECA12</title>
    <g id="Tokens" stroke="none" stroke-width="1" fill="none" fill-rule="evenodd">
        <g id="TO-Icons" transform="translate(-780.000000, -2803.000000)">
            <g id="Group-36-Copy" transform="translate(133.000000, 2803.000000)">
                <g id="A-Icons/N/next/graphical-Copy-4" transform="translate(647.500000, 0.000000)">
                    <polygon id="Protection" points="0 0 64.001 0 64.001 64 0 64"></polygon>
                    <path d="M53,47.004 L53,31.75 C53,30.922 52.329,30.25 51.5,30.25 L33.5,30.25 L33.5,16.996 C35.523,16.355 37,14.486 37,12.25 C37,9.488 34.762,7.25 32,7.25 C29.238,7.25 27,9.488 27,12.25 C27,14.486 28.477,16.356 30.5,16.996 L30.5,30.25 L12.5,30.25 C11.671,30.25 11,30.922 11,31.75 L11,47.004 C8.977,47.645 7.5,49.516 7.5,51.75 C7.5,54.512 9.738,56.75 12.5,56.75 C15.262,56.75 17.5,54.512 17.5,51.75 C17.5,49.516 16.023,47.645 14,47.004 L14,33.25 L30.5,33.25 L30.5,47.004 C28.477,47.645 27,49.516 27,51.75 C27,54.512 29.238,56.75 32,56.75 C34.762,56.75 37,54.512 37,51.75 C37,49.516 35.523,47.645 33.5,47.004 L33.5,33.25 L50,33.25 L50,47.004 C47.976,47.645 46.5,49.516 46.5,51.75 C46.5,54.512 48.738,56.75 51.5,56.75 C54.262,56.75 56.5,54.512 56.5,51.75 C56.5,49.516 55.024,47.645 53,47.004" id="Color" fill="#262626"></path>
                </g>
            </g>
        </g>
    </g>
</svg>